<svg version="1.1" id="Layer_1" xmlns="http://www.w3.org/2000/svg" xmlns:xlink="http://www.w3.org/1999/xlink" x="0px" y="0px"
	 width="100%" viewBox="0 0 500 500" enable-background="new 0 0 500 500" xml:space="preserve">
<path fill="#010000" opacity="1.000000" stroke="none" 
	d="
M230.000000,501.000000 
	C153.333359,501.000000 77.166702,501.000000 1.000041,501.000000 
	C1.000027,334.333405 1.000027,167.666779 1.000014,1.000130 
	C167.666565,1.000087 334.333130,1.000087 500.999756,1.000043 
	C500.999847,167.666519 500.999847,334.333038 500.999939,500.999786 
	C410.833344,501.000000 320.666656,501.000000 230.000000,501.000000 
M271.562164,341.097198 
	C272.394318,344.486938 274.492401,347.747620 277.920563,346.147064 
	C281.229553,344.602142 281.628082,340.558777 279.730225,335.494659 
	C278.564911,339.305450 277.787109,341.848999 277.009308,344.392548 
	C276.729736,344.416473 276.450165,344.440399 276.170593,344.464325 
	C275.771210,341.795135 275.371826,339.125977 274.780212,335.172058 
	C273.149750,337.671417 272.067627,339.330292 270.760620,341.097198 
	C270.760620,341.097198 270.750793,341.411499 270.750793,341.411499 
	C270.750793,341.411499 271.010742,341.014130 271.562164,341.097198 
M345.789551,265.842712 
	C348.884216,264.402649 352.955383,264.313324 354.431274,259.477631 
	C365.937744,251.922104 373.647247,241.472351 377.351318,228.287766 
	C379.672668,220.024948 380.390442,211.546555 377.992706,202.276062 
	C376.158661,181.554428 357.705780,161.380051 336.102173,156.197723 
	C323.408600,153.152786 311.040894,153.555679 298.436707,158.733032 
	C298.282867,158.804672 298.128998,158.876328 297.404968,158.787872 
	C297.096161,159.009735 296.787354,159.231613 295.936584,159.539566 
	C295.613434,159.706543 295.290283,159.873520 294.424957,159.933258 
	C294.139557,160.141037 293.854156,160.348801 292.883240,160.764252 
	C286.150757,165.101395 279.418274,169.438553 272.108337,174.109619 
	C264.739899,181.131699 257.371460,188.153778 249.539948,195.197327 
	C249.539948,195.197327 249.076736,195.214859 248.976654,194.511505 
	C242.269302,187.857635 235.932083,180.772018 228.778214,174.638977 
	C213.455154,161.502441 196.153122,152.899460 175.242661,154.167648 
	C173.447418,154.276520 171.706757,155.285339 169.240372,155.965195 
	C167.164581,156.316223 165.088791,156.667252 162.521484,156.941910 
	C162.521484,156.941910 162.061890,157.132172 161.316711,157.030167 
	C158.297272,158.423401 155.277832,159.816620 151.608429,161.438034 
	C147.968887,164.278427 144.120651,166.891418 140.729996,170.003006 
	C131.560974,178.417343 126.486847,189.138916 123.698677,201.479202 
	C123.747932,201.972168 123.797180,202.465149 123.765839,203.781219 
	C123.679596,206.184387 123.593353,208.587555 123.184891,211.847061 
	C124.255463,218.278610 125.326035,224.710159 126.655136,231.898727 
	C126.828026,232.403214 127.000916,232.907700 127.039093,233.323410 
	C127.039093,233.323410 127.165451,233.325623 127.417397,234.054001 
	C137.468460,257.679596 158.663971,271.232727 184.221893,270.040588 
	C194.055679,269.581879 203.602890,267.604279 212.759735,261.917786 
	C216.895386,259.307465 221.031052,256.697174 225.837265,253.964706 
	C233.651337,246.600632 241.465424,239.236557 249.931229,232.115753 
	C250.960373,232.804932 252.104752,233.370544 252.998917,234.204468 
	C257.059387,237.991486 261.049377,241.854095 265.409241,246.288666 
	C267.502289,247.650681 269.595306,249.012695 271.971985,250.628906 
	C271.971985,250.628906 272.328796,250.762100 272.540131,251.370850 
	C279.937042,258.848511 289.073212,263.115479 299.625244,265.990173 
	C299.999207,266.096222 300.373169,266.202301 300.944092,266.747345 
	C301.612122,266.843506 302.280182,266.939667 303.641357,267.235962 
	C315.042725,270.725067 326.476959,271.505890 338.599396,267.679535 
	C338.995056,267.542969 339.390747,267.406403 340.453705,267.449554 
	C341.987000,266.964874 343.520264,266.480194 345.789551,265.842712 
M138.795609,317.421570 
	C138.795609,314.623505 138.795609,311.825439 138.795609,308.044556 
	C144.666214,314.324310 147.121567,321.612732 153.560120,325.899200 
	C154.052277,317.926453 154.488724,310.187805 154.062103,302.482361 
	C153.224609,302.481506 152.387115,302.480652 151.549622,302.479797 
	C151.549622,307.838379 151.549622,313.196930 151.549622,318.555481 
	C151.139008,318.591797 150.728378,318.628113 150.317764,318.664398 
	C146.126816,313.026123 141.935852,307.387817 137.744904,301.749512 
	C137.277939,302.051849 136.810989,302.354218 136.344025,302.656555 
	C136.344025,310.360321 136.344025,318.064087 136.344025,325.767853 
	C136.973221,325.817688 137.602432,325.867523 138.231628,325.917389 
	C138.421555,323.391510 138.611465,320.865662 138.795609,317.421570 
M211.022873,305.932953 
	C210.528931,304.722595 210.034988,303.512268 209.541046,302.301910 
	C208.860336,302.493011 208.179611,302.684143 207.498886,302.875275 
	C207.498886,307.647339 207.498886,312.419434 207.498886,318.032471 
	C200.761887,313.521454 199.810654,304.865631 191.829407,301.684845 
	C191.829407,309.791046 191.750488,316.580780 191.921921,323.364197 
	C191.945297,324.289124 193.218903,325.182495 193.913651,326.090454 
	C194.347534,325.908173 194.781418,325.725891 195.215302,325.543610 
	C195.215302,320.038025 195.215302,314.532410 195.215302,308.356506 
	C201.164810,313.979156 203.379105,321.664734 209.396347,326.016724 
	C209.937820,325.817566 210.479294,325.618378 211.020767,325.419220 
	C211.020767,319.185089 211.020767,312.950928 211.022873,305.932953 
M321.687164,325.825806 
	C323.346924,325.814606 325.147400,326.214142 326.636139,325.703888 
	C329.449677,324.739655 333.201752,323.916779 334.466553,321.788696 
	C335.643341,319.808716 334.091095,316.206787 333.719330,313.146362 
	C333.594513,310.503265 334.314636,305.566803 333.171295,305.088959 
	C328.593170,303.175629 323.436768,302.645996 317.963989,301.492828 
	C317.963989,309.834778 317.865875,316.611053 318.087708,323.376831 
	C318.115570,324.226044 319.830414,325.019897 321.687164,325.825806 
M370.094452,315.099915 
	C372.662994,316.085480 376.577484,316.682037 374.869141,320.387299 
	C374.139526,321.969818 370.239807,322.470947 367.709045,322.711884 
	C365.961212,322.878296 364.090698,321.756042 362.128113,321.165466 
	C363.272369,325.761078 369.884705,327.776276 374.688995,324.783966 
	C376.506592,323.651947 378.592987,320.906219 378.402924,319.126007 
	C378.177246,317.012665 375.919891,314.766541 373.993774,313.298553 
	C372.534729,312.186493 370.017487,312.553864 368.340607,311.607910 
	C366.992981,310.847656 366.199097,309.105682 365.159515,307.799316 
	C366.663940,306.798492 368.166779,304.985168 369.673157,304.982239 
	C372.092896,304.977539 374.514984,306.169800 376.936096,306.856262 
	C376.858612,305.089539 376.041168,303.273071 374.903137,303.043060 
	C372.207092,302.498230 369.197266,302.112518 366.627014,302.811859 
	C364.810425,303.306152 362.393158,305.591980 362.258606,307.242279 
	C362.095520,309.242126 363.773132,311.641998 365.207764,313.422913 
	C365.993439,314.398224 367.919830,314.454620 370.094452,315.099915 
M288.766846,312.627502 
	C284.889862,303.123505 284.889862,303.123505 281.654053,303.083649 
	C284.375183,310.136108 286.946899,317.068024 289.742462,323.908447 
	C290.783264,326.455170 293.033020,326.704010 294.093903,324.220551 
	C297.050385,317.299469 299.540192,310.178986 302.214264,303.137207 
	C297.757324,303.566162 297.655731,307.313416 296.375732,310.048798 
	C294.962891,313.067932 293.792023,316.200348 292.005829,320.515350 
	C290.611572,317.246460 289.795227,315.332520 288.766846,312.627502 
M350.089264,314.917877 
	C351.726044,314.774902 353.362854,314.631927 354.999634,314.488983 
	C354.994843,313.977234 354.990082,313.465485 354.985291,312.953766 
	C351.667755,312.781616 348.350189,312.609467 344.767303,312.423523 
	C344.767303,310.012207 344.767303,307.766724 344.767303,305.531799 
	C348.452972,305.045685 352.047943,304.571533 355.642944,304.097382 
	C355.582977,303.684448 355.523010,303.271484 355.463074,302.858551 
	C350.945526,302.858551 346.427979,302.858551 341.807159,302.858551 
	C341.807159,310.616638 341.807159,317.991669 341.807159,325.302094 
	C349.769318,326.645294 354.638306,326.134888 357.314789,323.052856 
	C352.704437,323.052856 348.738525,323.052856 344.606720,323.052856 
	C344.606720,320.004608 344.606720,317.750305 344.606720,315.177917 
	C346.320374,315.081573 347.763306,315.000427 350.089264,314.917877 
M248.908340,303.995117 
	C253.202652,310.690857 258.791809,316.856873 257.750671,326.078033 
	C259.092285,324.771606 259.527893,323.490112 259.938019,322.200500 
	C261.106232,318.526825 262.018433,314.746826 263.502869,311.206329 
	C264.716461,308.311829 266.607910,305.701508 268.198853,302.965210 
	C267.632660,302.565887 267.066437,302.166565 266.500214,301.767242 
	C263.910187,305.287018 261.320160,308.806824 258.383362,312.797821 
	C256.406433,309.904083 254.756104,307.066467 252.644989,304.627686 
	C251.908401,303.776764 250.034988,303.909943 248.908340,303.995117 
M175.926758,305.001862 
	C175.739914,304.183746 175.573471,302.657623 175.363235,302.651550 
	C170.654800,302.515900 165.941528,302.547546 161.308411,302.547546 
	C160.402435,317.323608 160.849075,323.503998 163.790176,326.780914 
	C164.102753,322.438232 164.349274,319.013000 164.614395,315.329498 
	C167.933945,315.070435 171.177338,314.817352 174.420731,314.564270 
	C174.407547,314.041046 174.394348,313.517822 174.381149,312.994598 
	C171.222992,312.820007 168.064850,312.645416 164.615234,312.454712 
	C164.615234,310.019745 164.615234,307.769135 164.615234,305.071869 
	C168.098175,305.071869 171.562881,305.071869 175.926758,305.001862 
M237.427612,309.562256 
	C237.535095,308.144440 237.642593,306.726593 237.745300,305.371704 
	C240.443893,305.090973 242.745590,304.851532 245.800705,304.533752 
	C241.237885,301.483032 228.637100,301.937042 226.918365,304.908905 
	C229.305267,305.024658 231.543655,305.133240 233.709946,305.238312 
	C235.268295,312.235077 232.691818,319.368896 235.281769,325.910797 
	C235.997284,325.909363 236.712814,325.907928 237.428329,325.906494 
	C237.428329,320.786896 237.428329,315.667328 237.427612,309.562256 
M219.658600,302.464630 
	C219.389404,302.651855 218.889954,302.832367 218.884277,303.027283 
	C218.677551,310.123688 218.482559,317.221100 218.420563,324.319580 
	C218.416061,324.834991 219.423492,325.359283 219.960419,325.879425 
	C220.495758,325.182770 221.465210,324.504700 221.495926,323.786499 
	C221.694473,319.143219 221.841675,314.486115 221.687256,309.844086 
	C221.604660,307.361298 220.886490,304.899689 219.658600,302.464630 
M125.523064,320.973938 
	C125.791367,322.645996 126.059669,324.318085 126.327972,325.990143 
	C127.133934,325.943054 127.939903,325.895996 128.745865,325.848907 
	C128.745865,319.205505 128.829941,312.559998 128.663864,305.920746 
	C128.635880,304.802338 127.527733,303.710968 126.918686,302.607086 
	C126.371399,303.792267 125.384949,304.966309 125.354523,306.164581 
	C125.236755,310.802582 125.423622,315.448273 125.523064,320.973938 
M309.728149,302.637054 
	C309.121246,303.056519 307.991699,303.468475 307.985565,303.896545 
	C307.888794,310.662750 307.883148,317.432190 308.040558,324.196655 
	C308.054810,324.809906 309.330597,325.393738 310.468964,326.379547 
	C310.468964,317.933533 310.468964,310.417969 309.728149,302.637054 
M184.949554,303.349243 
	C183.944016,303.682159 182.069916,303.994049 182.061249,304.351166 
	C181.889221,311.443604 181.932968,318.541290 181.932968,325.637909 
	C183.008179,325.730591 184.083389,325.823242 185.158615,325.915894 
	C185.028244,318.665863 185.260513,311.458038 184.949554,303.349243 
M201.374084,340.327515 
	C202.965195,341.788116 204.556290,343.248749 207.104797,345.588226 
	C206.923187,341.879944 206.816269,339.696472 206.709335,337.513000 
	C206.393326,337.475128 206.077316,337.437286 205.761307,337.399414 
	C205.304993,338.422577 204.848679,339.445709 204.370758,340.517334 
	C202.794357,339.072205 201.338257,337.737366 199.176544,335.755707 
	C199.176544,339.386108 199.176544,341.805145 199.176544,345.102692 
	C199.930740,342.800354 200.411469,341.332825 201.374084,340.327515 
z"/>
<path fill="#670C4C" opacity="1.000000" stroke="none" 
	d="
M169.940750,155.876099 
	C171.706757,155.285339 173.447418,154.276520 175.242661,154.167648 
	C196.153122,152.899460 213.455154,161.502441 228.778214,174.638977 
	C235.932083,180.772018 242.269302,187.857635 248.930222,195.180786 
	C244.067398,201.370743 239.251007,206.891403 234.199615,212.542618 
	C233.614563,213.068970 233.264526,213.464783 232.700577,213.914459 
	C232.229370,214.153061 231.947952,214.203674 231.270950,214.059967 
	C219.617859,204.665192 209.163498,194.144577 195.265457,188.705963 
	C212.117447,187.378464 227.502029,191.877914 243.415176,198.785370 
	C243.850189,197.043594 245.193085,194.489304 244.540710,193.786148 
	C241.836426,190.871323 238.529282,188.515823 235.191040,185.712524 
	C234.300812,185.304657 233.663010,185.139236 233.014343,184.983826 
	C233.003464,184.993835 233.025711,184.967072 233.065643,184.610153 
	C230.488297,181.382660 227.871017,178.512085 225.052429,175.378571 
	C219.547272,171.713379 214.243454,168.311142 208.650803,164.714218 
	C196.314468,158.261963 183.355164,156.057556 169.940750,155.876099 
z"/>
<path fill="#B2865C" opacity="1.000000" stroke="none" 
	d="
M212.074554,262.111511 
	C203.602890,267.604279 194.055679,269.581879 184.221893,270.040588 
	C158.663971,271.232727 137.468460,257.679596 127.280182,233.712845 
	C127.142960,233.371689 127.173805,233.412186 127.173805,233.412186 
	C127.000916,232.907700 126.828026,232.403214 126.668221,231.217224 
	C127.354073,230.492401 128.436600,230.166946 128.632706,230.451797 
	C129.851746,232.222336 130.593826,234.387634 132.024307,235.930435 
	C134.102753,238.172089 134.652924,242.438400 139.399521,241.962402 
	C140.449783,242.416840 141.229050,242.708725 142.136948,243.311035 
	C147.081039,249.702972 153.105042,253.764282 161.134872,255.116257 
	C165.887863,256.846069 170.408722,258.402649 175.016739,259.632690 
	C187.193924,262.883240 199.479904,264.917938 212.074554,262.111511 
z"/>
<path fill="#B2865C" opacity="1.000000" stroke="none" 
	d="
M298.944550,158.697723 
	C311.040894,153.555679 323.408600,153.152786 336.102173,156.197723 
	C357.705780,161.380051 376.158661,181.554428 377.731079,202.938065 
	C377.363892,204.360626 377.258362,205.121170 376.810974,205.851776 
	C375.650909,204.274933 374.832703,202.728027 374.243744,200.908432 
	C373.729340,190.713882 368.897156,183.479736 359.918274,178.565109 
	C353.802338,175.919388 347.905121,173.536316 342.001770,170.755768 
	C340.867004,169.200134 339.945770,167.471436 338.576904,166.973633 
	C327.162964,162.822723 315.366516,160.767242 303.182129,160.842163 
	C301.774048,160.850815 300.357300,159.446777 298.944550,158.697723 
z"/>
<path fill="#F6E8CC" opacity="1.000000" stroke="none" 
	d="
M250.003006,195.175858 
	C257.371460,188.153778 264.739899,181.131699 272.757233,173.992981 
	C280.650848,172.030914 287.887817,170.154205 295.142181,168.347565 
	C305.383179,165.797150 315.694397,165.435471 325.988037,167.882935 
	C327.137299,168.156189 327.952087,169.835983 328.623230,170.982681 
	C327.897614,171.089310 327.470703,171.076752 326.909790,170.846375 
	C326.126617,170.883789 325.477539,171.139008 324.477295,171.549866 
	C322.639771,172.044647 321.153320,172.383804 319.353577,172.551300 
	C318.315063,172.793427 317.589844,173.207214 316.562286,173.799011 
	C314.740417,174.521393 313.220917,175.065765 311.263397,175.453979 
	C305.790375,176.083084 300.509338,176.157654 295.770264,177.797913 
	C285.075043,181.499619 274.647766,185.975433 263.742126,190.103333 
	C262.249298,191.045578 261.125763,192.020798 259.828278,193.287079 
	C257.830017,194.446564 256.005676,195.314972 253.848724,196.173355 
	C253.016403,196.781738 252.516663,197.400146 251.753784,198.144409 
	C251.020615,198.623871 250.550552,198.977478 250.049500,198.916138 
	C250.013336,197.392746 250.008163,196.284302 250.003006,195.175858 
z"/>
<path fill="#EED9B7" opacity="1.000000" stroke="none" 
	d="
M212.417145,262.014648 
	C199.479904,264.917938 187.193924,262.883240 175.016739,259.632690 
	C170.408722,258.402649 165.887863,256.846069 161.598572,255.181183 
	C170.585419,255.549118 178.949326,254.100418 187.112213,250.912048 
	C187.808334,250.765640 188.368851,250.373688 189.136139,249.758820 
	C189.902649,249.318588 190.462402,249.101288 191.178207,249.101868 
	C191.899231,248.906281 192.464188,248.492828 193.182373,247.900208 
	C193.574829,247.516617 193.823654,247.324570 194.279663,247.220154 
	C194.477280,247.295380 194.899307,247.326767 195.031815,247.648132 
	C197.764252,247.967926 200.364197,247.966324 202.892014,248.320129 
	C200.905762,249.448792 198.929321,250.099319 197.095154,251.030182 
	C195.296524,251.942978 193.642654,253.141006 191.925232,254.213837 
	C192.137161,254.685974 192.349106,255.158127 192.561035,255.630264 
	C195.274673,255.630264 197.995224,255.755753 200.700653,255.606735 
	C208.859161,255.157410 217.011795,254.601349 225.166718,254.086868 
	C221.031052,256.697174 216.895386,259.307465 212.417145,262.014648 
M188.837326,255.712936 
	C188.919144,255.565811 189.000961,255.418686 189.082794,255.271576 
	C188.949982,255.335526 188.817184,255.399460 188.837326,255.712936 
z"/>
<path fill="#F6E8CC" opacity="1.000000" stroke="none" 
	d="
M225.501984,254.025787 
	C217.011795,254.601349 208.859161,255.157410 200.700653,255.606735 
	C197.995224,255.755753 195.274673,255.630264 192.561035,255.630264 
	C192.349106,255.158127 192.137161,254.685974 191.925232,254.213837 
	C193.642654,253.141006 195.296524,251.942978 197.095154,251.030182 
	C198.929321,250.099319 200.905762,249.448792 203.226883,248.292191 
	C204.078247,247.859070 204.522629,247.809265 205.194153,248.058151 
	C206.524780,248.415741 207.746628,248.815018 208.712845,248.479095 
	C215.748611,246.032928 222.896347,243.802933 229.675064,240.761139 
	C234.057938,238.794418 237.876984,235.571121 242.152771,232.859451 
	C242.356857,232.807983 242.775101,232.760529 243.133270,232.788773 
	C244.290970,231.837097 245.090515,230.857193 246.020691,229.676086 
	C246.359314,229.223846 246.611694,229.030838 247.347961,228.924774 
	C248.946045,229.078125 250.104614,229.202545 251.154129,229.596313 
	C250.456558,230.534607 249.868027,231.203537 249.279510,231.872482 
	C241.465424,239.236557 233.651337,246.600632 225.501984,254.025787 
z"/>
<path fill="#670C4C" opacity="1.000000" stroke="none" 
	d="
M249.605377,231.994110 
	C249.868027,231.203537 250.456558,230.534607 251.141190,229.584869 
	C251.237305,229.304092 251.265121,229.293808 251.581650,229.188751 
	C252.461914,228.406052 253.025650,227.728424 253.745972,227.087234 
	C254.146561,226.991882 254.193619,226.809616 254.278564,226.422348 
	C254.678284,226.179123 254.843140,226.090408 255.352112,225.907959 
	C256.629333,224.305679 257.562439,222.797150 258.387878,221.246933 
	C258.280182,221.205261 258.255096,221.434814 258.563904,221.625793 
	C259.073914,221.682297 259.275146,221.547806 259.748657,221.327881 
	C260.509735,220.670425 260.998596,220.098389 261.753113,219.337219 
	C263.749420,217.154724 265.480072,215.161362 267.392731,213.140137 
	C267.574738,213.112289 267.942139,213.087967 268.143616,213.348679 
	C273.301971,218.028076 278.258850,222.446762 282.828827,226.869476 
	C280.051788,227.296112 277.413696,227.225403 275.335968,228.269684 
	C272.889404,229.499313 271.135834,232.071457 268.719086,233.403427 
	C260.641602,237.855255 260.579559,237.742706 265.064728,245.689499 
	C261.049377,241.854095 257.059387,237.991486 252.998917,234.204468 
	C252.104752,233.370544 250.960373,232.804932 249.605377,231.994110 
z"/>
<path fill="#BD597A" opacity="1.000000" stroke="none" 
	d="
M123.507111,210.990723 
	C123.593353,208.587555 123.679596,206.184387 123.889557,203.078018 
	C123.983734,201.972305 123.954185,201.569809 123.924637,201.167297 
	C126.486847,189.138916 131.560974,178.417343 140.729996,170.003006 
	C144.120651,166.891418 147.968887,164.278427 151.894440,161.755005 
	C151.875488,163.443237 151.570511,164.814529 151.106308,166.395233 
	C149.972229,168.552063 148.997391,170.499481 147.906906,172.719376 
	C146.863953,173.809860 145.936630,174.627884 144.358765,176.019775 
	C144.470810,173.875763 144.532593,172.693359 144.642090,170.598282 
	C142.634949,172.280716 141.295059,173.403854 139.679169,174.763351 
	C138.264542,176.655090 137.125916,178.310455 135.672256,180.118637 
	C130.060120,187.143311 126.899033,194.990112 127.228241,203.586029 
	C127.899422,221.111038 137.201355,233.484055 151.829010,242.442612 
	C151.443970,243.227753 151.183182,243.752747 150.552124,244.225632 
	C149.435806,244.122116 148.689743,244.070724 147.875870,243.671402 
	C146.543686,242.905655 145.279327,242.487808 143.752411,242.057129 
	C143.314667,242.041031 143.139450,242.037766 142.921875,241.686707 
	C141.631134,240.563950 140.382736,239.789001 138.837875,238.842346 
	C133.663910,233.317642 128.848724,228.028961 127.373894,220.463470 
	C126.733688,217.179428 124.834480,214.140808 123.507111,210.990723 
z"/>
<path fill="#8D1850" opacity="1.000000" stroke="none" 
	d="
M265.237000,245.989075 
	C260.579559,237.742706 260.641602,237.855255 268.719086,233.403427 
	C271.135834,232.071457 272.889404,229.499313 275.335968,228.269684 
	C277.413696,227.225403 280.051788,227.296112 283.152527,226.958710 
	C289.173126,229.981750 294.505188,232.881088 299.771332,235.895554 
	C300.638214,236.391785 301.215912,237.393219 301.539307,238.163452 
	C299.301575,237.482468 297.281097,237.075790 295.636169,236.060577 
	C291.755432,233.665497 288.344208,233.524261 284.963104,236.968796 
	C283.158325,238.807465 281.020721,241.647720 278.998688,241.677444 
	C274.321899,241.746155 273.179138,244.482254 272.055725,248.311951 
	C271.882721,249.273529 271.785553,249.824112 271.688354,250.374710 
	C269.595306,249.012695 267.502289,247.650681 265.237000,245.989075 
z"/>
<path fill="#DCBD90" opacity="1.000000" stroke="none" 
	d="
M328.921997,170.863495 
	C327.952087,169.835983 327.137299,168.156189 325.988037,167.882935 
	C315.694397,165.435471 305.383179,165.797150 295.142181,168.347565 
	C287.887817,170.154205 280.650848,172.030914 273.045959,173.826019 
	C279.418274,169.438553 286.150757,165.101395 293.499329,160.747894 
	C294.399323,160.501205 294.683228,160.270859 294.967133,160.040497 
	C295.290283,159.873520 295.613434,159.706543 296.494568,159.596252 
	C297.360107,159.417938 297.667603,159.182953 297.975128,158.947968 
	C298.128998,158.876328 298.282867,158.804672 298.690613,158.715363 
	C300.357300,159.446777 301.774048,160.850815 303.182129,160.842163 
	C315.366516,160.767242 327.162964,162.822723 338.576904,166.973633 
	C339.945770,167.471436 340.867004,169.200134 341.536774,170.758911 
	C337.025909,171.060837 332.973938,170.962173 328.921997,170.863495 
z"/>
<path fill="#DCBD90" opacity="1.000000" stroke="none" 
	d="
M377.152832,205.881729 
	C377.258362,205.121170 377.363892,204.360626 377.619873,203.354736 
	C380.390442,211.546555 379.672668,220.024948 377.351318,228.287766 
	C373.647247,241.472351 365.937744,251.922104 353.926819,259.465210 
	C351.269958,259.160248 348.824768,258.074615 347.025635,258.738861 
	C343.174530,260.160675 339.657410,262.487183 336.076447,264.404114 
	C337.469452,264.990326 338.767853,265.536743 340.022919,266.283142 
	C339.830383,266.724579 339.765991,266.986816 339.786407,267.269867 
	C339.390747,267.406403 338.995056,267.542969 337.933350,267.458618 
	C330.478485,267.199188 323.680328,267.357971 316.904663,267.039368 
	C313.492249,266.878906 310.116791,265.869446 306.747040,265.140442 
	C306.637512,265.116760 306.773590,263.958038 307.274475,263.486877 
	C312.915344,263.720093 318.144348,264.346039 323.220795,263.724823 
	C329.069641,263.009094 334.844696,261.400848 340.524567,259.744019 
	C342.623657,259.131714 344.318054,256.275848 346.272034,256.192108 
	C351.011322,255.988968 354.485291,253.974289 358.462646,251.597046 
	C369.491974,245.004837 374.223236,235.107864 375.943604,222.653503 
	C376.113037,220.520905 376.256012,218.820816 376.738861,216.991104 
	C377.167908,214.254868 377.257080,211.648254 377.308502,208.648788 
	C377.231415,207.464523 377.192108,206.673126 377.152832,205.881729 
z"/>
<path fill="#D8D7D7" opacity="1.000000" stroke="none" 
	d="
M151.265549,166.185822 
	C151.570511,164.814529 151.875488,163.443237 152.219421,161.640900 
	C155.277832,159.816620 158.297272,158.423401 161.625565,157.409317 
	C161.209839,158.998978 160.485275,160.209488 158.867508,162.912262 
	C163.700195,161.651978 167.133911,160.756531 171.842880,159.528519 
	C167.762863,158.368607 165.387939,157.693436 163.013000,157.018280 
	C165.088791,156.667252 167.164581,156.316223 169.590561,155.920654 
	C183.355164,156.057556 196.314468,158.261963 208.550659,165.003510 
	C207.882950,166.195908 207.026535,166.904343 205.788437,167.530273 
	C201.004196,166.557281 196.601639,165.666794 191.936432,164.543976 
	C191.066971,164.023849 190.460175,163.736038 189.620972,163.309143 
	C188.676773,163.053848 187.964996,162.937622 186.908203,162.560226 
	C179.920746,162.793335 173.261536,163.129456 166.641312,163.832748 
	C161.490860,164.379913 156.389008,165.384521 151.265549,166.185822 
z"/>
<path fill="#BD597A" opacity="1.000000" stroke="none" 
	d="
M271.830170,250.501801 
	C271.785553,249.824112 271.882721,249.273529 272.418671,248.345245 
	C277.175476,249.312637 281.415680,251.354919 285.828888,251.847641 
	C293.408997,252.693985 299.560822,248.167877 305.927795,244.871780 
	C306.792786,244.423965 307.213745,243.118362 307.821289,242.237488 
	C306.353668,241.007629 305.137665,239.988632 304.374695,238.934570 
	C310.258209,239.331528 315.688721,239.763550 320.992859,240.529922 
	C318.079071,243.164124 315.311951,245.489243 312.495026,247.752365 
	C311.222076,248.775055 309.952820,249.884827 308.504578,250.591995 
	C303.235657,253.164749 297.891876,255.584122 292.486450,258.103210 
	C294.182068,259.217407 295.675140,260.198517 297.078796,261.477844 
	C296.579437,262.216431 296.169525,262.656860 295.421204,263.038147 
	C289.075836,259.574951 283.087311,256.137817 277.048981,252.790482 
	C275.558746,251.964355 273.906555,251.430374 272.328796,250.762100 
	C272.328796,250.762100 271.971985,250.628906 271.830170,250.501801 
z"/>
<path fill="#D8D7D7" opacity="1.000000" stroke="none" 
	d="
M138.798492,317.880676 
	C138.611465,320.865662 138.421555,323.391510 138.231628,325.917389 
	C137.602432,325.867523 136.973221,325.817688 136.344025,325.767853 
	C136.344025,318.064087 136.344025,310.360321 136.344025,302.656555 
	C136.810989,302.354218 137.277939,302.051849 137.744904,301.749512 
	C141.935852,307.387817 146.126816,313.026123 150.317764,318.664398 
	C150.728378,318.628113 151.139008,318.591797 151.549622,318.555481 
	C151.549622,313.196930 151.549622,307.838379 151.549622,302.479797 
	C152.387115,302.480652 153.224609,302.481506 154.062103,302.482361 
	C154.488724,310.187805 154.052277,317.926453 153.560120,325.899200 
	C147.121567,321.612732 144.666214,314.324310 138.795609,308.044556 
	C138.795609,311.825439 138.795609,314.623505 138.798492,317.880676 
z"/>
<path fill="#D8D7D7" opacity="1.000000" stroke="none" 
	d="
M211.021820,306.324890 
	C211.020767,312.950928 211.020767,319.185089 211.020767,325.419220 
	C210.479294,325.618378 209.937820,325.817566 209.396347,326.016724 
	C203.379105,321.664734 201.164810,313.979156 195.215302,308.356506 
	C195.215302,314.532410 195.215302,320.038025 195.215302,325.543610 
	C194.781418,325.725891 194.347534,325.908173 193.913651,326.090454 
	C193.218903,325.182495 191.945297,324.289124 191.921921,323.364197 
	C191.750488,316.580780 191.829407,309.791046 191.829407,301.684845 
	C199.810654,304.865631 200.761887,313.521454 207.498886,318.032471 
	C207.498886,312.419434 207.498886,307.647339 207.498886,302.875275 
	C208.179611,302.684143 208.860336,302.493011 209.541046,302.301910 
	C210.034988,303.512268 210.528931,304.722595 211.021820,306.324890 
M207.399200,318.051422 
	C207.315582,318.268341 207.231949,318.485291 207.148331,318.702240 
	C207.363861,318.641022 207.579391,318.579834 207.399200,318.051422 
z"/>
<path fill="#D8D7D7" opacity="1.000000" stroke="none" 
	d="
M321.225403,325.832611 
	C319.830414,325.019897 318.115570,324.226044 318.087708,323.376831 
	C317.865875,316.611053 317.963989,309.834778 317.963989,301.492828 
	C323.436768,302.645996 328.593170,303.175629 333.171295,305.088959 
	C334.314636,305.566803 333.594513,310.503265 333.719330,313.146362 
	C334.091095,316.206787 335.643341,319.808716 334.466553,321.788696 
	C333.201752,323.916779 329.449677,324.739655 326.636139,325.703888 
	C325.147400,326.214142 323.346924,325.814606 321.225403,325.832611 
M332.259125,318.579712 
	C330.234222,312.442169 325.358765,315.453064 321.341431,314.850464 
	C321.341431,317.741913 321.341431,320.248901 321.341431,323.255371 
	C325.309723,321.858856 330.234955,325.287476 332.259125,318.579712 
M320.919708,308.416168 
	C321.065216,309.804321 321.210724,311.192474 321.346191,312.484528 
	C323.425415,312.484528 325.116180,312.935272 326.355194,312.379303 
	C328.232910,311.536774 329.796417,309.994141 331.493439,308.748932 
	C330.340576,307.516327 328.937836,305.097412 328.082611,305.277588 
	C325.692719,305.781006 321.807465,302.397736 320.919708,308.416168 
z"/>
<path fill="#D8D7D7" opacity="1.000000" stroke="none" 
	d="
M369.713135,315.012634 
	C367.919830,314.454620 365.993439,314.398224 365.207764,313.422913 
	C363.773132,311.641998 362.095520,309.242126 362.258606,307.242279 
	C362.393158,305.591980 364.810425,303.306152 366.627014,302.811859 
	C369.197266,302.112518 372.207092,302.498230 374.903137,303.043060 
	C376.041168,303.273071 376.858612,305.089539 376.936096,306.856262 
	C374.514984,306.169800 372.092896,304.977539 369.673157,304.982239 
	C368.166779,304.985168 366.663940,306.798492 365.159515,307.799316 
	C366.199097,309.105682 366.992981,310.847656 368.340607,311.607910 
	C370.017487,312.553864 372.534729,312.186493 373.993774,313.298553 
	C375.919891,314.766541 378.177246,317.012665 378.402924,319.126007 
	C378.592987,320.906219 376.506592,323.651947 374.688995,324.783966 
	C369.884705,327.776276 363.272369,325.761078 362.128113,321.165466 
	C364.090698,321.756042 365.961212,322.878296 367.709045,322.711884 
	C370.239807,322.470947 374.139526,321.969818 374.869141,320.387299 
	C376.577484,316.682037 372.662994,316.085480 369.713135,315.012634 
z"/>
<path fill="#D8D7D7" opacity="1.000000" stroke="none" 
	d="
M288.872864,313.023010 
	C289.795227,315.332520 290.611572,317.246460 292.005829,320.515350 
	C293.792023,316.200348 294.962891,313.067932 296.375732,310.048798 
	C297.655731,307.313416 297.757324,303.566162 302.214264,303.137207 
	C299.540192,310.178986 297.050385,317.299469 294.093903,324.220551 
	C293.033020,326.704010 290.783264,326.455170 289.742462,323.908447 
	C286.946899,317.068024 284.375183,310.136108 281.654053,303.083649 
	C284.889862,303.123505 284.889862,303.123505 288.872864,313.023010 
z"/>
<path fill="#D8D7D7" opacity="1.000000" stroke="none" 
	d="
M349.647766,314.918579 
	C347.763306,315.000427 346.320374,315.081573 344.606720,315.177917 
	C344.606720,317.750305 344.606720,320.004608 344.606720,323.052856 
	C348.738525,323.052856 352.704437,323.052856 357.314789,323.052856 
	C354.638306,326.134888 349.769318,326.645294 341.807159,325.302094 
	C341.807159,317.991669 341.807159,310.616638 341.807159,302.858551 
	C346.427979,302.858551 350.945526,302.858551 355.463074,302.858551 
	C355.523010,303.271484 355.582977,303.684448 355.642944,304.097382 
	C352.047943,304.571533 348.452972,305.045685 344.767303,305.531799 
	C344.767303,307.766724 344.767303,310.012207 344.767303,312.423523 
	C348.350189,312.609467 351.667755,312.781616 354.985291,312.953766 
	C354.990082,313.465485 354.994843,313.977234 354.999634,314.488983 
	C353.362854,314.631927 351.726044,314.774902 349.647766,314.918579 
z"/>
<path fill="#D8D7D7" opacity="1.000000" stroke="none" 
	d="
M248.794540,303.794403 
	C250.034988,303.909943 251.908401,303.776764 252.644989,304.627686 
	C254.756104,307.066467 256.406433,309.904083 258.383362,312.797821 
	C261.320160,308.806824 263.910187,305.287018 266.500214,301.767242 
	C267.066437,302.166565 267.632660,302.565887 268.198853,302.965210 
	C266.607910,305.701508 264.716461,308.311829 263.502869,311.206329 
	C262.018433,314.746826 261.106232,318.526825 259.938019,322.200500 
	C259.527893,323.490112 259.092285,324.771606 257.750671,326.078033 
	C258.791809,316.856873 253.202652,310.690857 248.794540,303.794403 
z"/>
<path fill="#D8D7D7" opacity="1.000000" stroke="none" 
	d="
M175.477173,305.036865 
	C171.562881,305.071869 168.098175,305.071869 164.615234,305.071869 
	C164.615234,307.769135 164.615234,310.019745 164.615234,312.454712 
	C168.064850,312.645416 171.222992,312.820007 174.381149,312.994598 
	C174.394348,313.517822 174.407547,314.041046 174.420731,314.564270 
	C171.177338,314.817352 167.933945,315.070435 164.614395,315.329498 
	C164.349274,319.013000 164.102753,322.438232 163.790176,326.780914 
	C160.849075,323.503998 160.402435,317.323608 161.308411,302.547546 
	C165.941528,302.547546 170.654800,302.515900 175.363235,302.651550 
	C175.573471,302.657623 175.739914,304.183746 175.477173,305.036865 
z"/>
<path fill="#B2865C" opacity="1.000000" stroke="none" 
	d="
M295.759644,263.097290 
	C296.169525,262.656860 296.579437,262.216431 297.463562,261.493652 
	C300.890228,261.917023 303.842682,262.622742 306.795166,263.328430 
	C306.773590,263.958038 306.637512,265.116760 306.747040,265.140442 
	C310.116791,265.869446 313.492249,266.878906 316.904663,267.039368 
	C323.680328,267.357971 330.478485,267.199188 337.617371,267.445068 
	C326.476959,271.505890 315.042725,270.725067 303.107025,266.876617 
	C301.964172,266.447662 301.355652,266.378021 300.747131,266.308380 
	C300.373169,266.202301 299.999207,266.096222 299.282593,265.567383 
	C297.879852,264.462189 296.819763,263.779724 295.759644,263.097290 
z"/>
<path fill="#D8D7D7" opacity="1.000000" stroke="none" 
	d="
M237.427979,310.054993 
	C237.428329,315.667328 237.428329,320.786896 237.428329,325.906494 
	C236.712814,325.907928 235.997284,325.909363 235.281769,325.910797 
	C232.691818,319.368896 235.268295,312.235077 233.709946,305.238312 
	C231.543655,305.133240 229.305267,305.024658 226.918365,304.908905 
	C228.637100,301.937042 241.237885,301.483032 245.800705,304.533752 
	C242.745590,304.851532 240.443893,305.090973 237.745300,305.371704 
	C237.642593,306.726593 237.535095,308.144440 237.427979,310.054993 
z"/>
<path fill="#8D1850" opacity="1.000000" stroke="none" 
	d="
M123.346001,211.418884 
	C124.834480,214.140808 126.733688,217.179428 127.373894,220.463470 
	C128.848724,228.028961 133.663910,233.317642 138.819931,239.190918 
	C139.108475,240.407425 139.118515,241.103638 139.128540,241.799866 
	C134.652924,242.438400 134.102753,238.172089 132.024307,235.930435 
	C130.593826,234.387634 129.851746,232.222336 128.632706,230.451797 
	C128.436600,230.166946 127.354073,230.492401 126.538956,230.838715 
	C125.326035,224.710159 124.255463,218.278610 123.346001,211.418884 
z"/>
<path fill="#DCBD90" opacity="1.000000" stroke="none" 
	d="
M220.056870,302.446564 
	C220.886490,304.899689 221.604660,307.361298 221.687256,309.844086 
	C221.841675,314.486115 221.694473,319.143219 221.495926,323.786499 
	C221.465210,324.504700 220.495758,325.182770 219.960419,325.879425 
	C219.423492,325.359283 218.416061,324.834991 218.420563,324.319580 
	C218.482559,317.221100 218.677551,310.123688 218.884277,303.027283 
	C218.889954,302.832367 219.389404,302.651855 220.056870,302.446564 
z"/>
<path fill="#D8D7D7" opacity="1.000000" stroke="none" 
	d="
M125.510040,320.532532 
	C125.423622,315.448273 125.236755,310.802582 125.354523,306.164581 
	C125.384949,304.966309 126.371399,303.792267 126.918678,302.607086 
	C127.527733,303.710968 128.635880,304.802338 128.663864,305.920746 
	C128.829941,312.559998 128.745865,319.205505 128.745865,325.848907 
	C127.939903,325.895996 127.133934,325.943054 126.327972,325.990143 
	C126.059669,324.318085 125.791367,322.645996 125.510040,320.532532 
z"/>
<path fill="#D8D7D7" opacity="1.000000" stroke="none" 
	d="
M310.098572,302.769745 
	C310.468964,310.417969 310.468964,317.933533 310.468964,326.379547 
	C309.330597,325.393738 308.054810,324.809906 308.040558,324.196655 
	C307.883148,317.432190 307.888794,310.662750 307.985565,303.896545 
	C307.991699,303.468475 309.121246,303.056519 310.098572,302.769745 
z"/>
<path fill="#EED9B7" opacity="1.000000" stroke="none" 
	d="
M340.066254,266.083160 
	C338.767853,265.536743 337.469452,264.990326 336.076447,264.404114 
	C339.657410,262.487183 343.174530,260.160675 347.025635,258.738861 
	C348.824768,258.074615 351.269958,259.160248 353.680237,259.702332 
	C352.955383,264.313324 348.884216,264.402649 345.013245,265.807800 
	C342.846710,265.876312 341.456482,265.979736 340.066254,266.083160 
z"/>
<path fill="#F6E8CC" opacity="1.000000" stroke="none" 
	d="
M185.026306,303.777039 
	C185.260513,311.458038 185.028244,318.665863 185.158615,325.915894 
	C184.083389,325.823242 183.008179,325.730591 181.932968,325.637909 
	C181.932968,318.541290 181.889221,311.443604 182.061249,304.351166 
	C182.069916,303.994049 183.944016,303.682159 185.026306,303.777039 
z"/>
<path fill="#EED9B7" opacity="1.000000" stroke="none" 
	d="
M249.771484,195.186584 
	C250.008163,196.284302 250.013336,197.392746 249.982376,199.224564 
	C248.641418,201.649384 247.336578,203.350830 245.831207,205.318756 
	C242.210205,208.187637 238.789719,210.790070 235.138336,213.144775 
	C234.749817,212.735397 234.592224,212.573746 234.434601,212.412079 
	C239.251007,206.891403 244.067398,201.370743 248.980255,195.532471 
	C249.076736,195.214859 249.539948,195.197327 249.771484,195.186584 
z"/>
<path fill="#8D1850" opacity="1.000000" stroke="none" 
	d="
M295.421204,263.038147 
	C296.819763,263.779724 297.879852,264.462189 299.015747,265.449310 
	C289.073212,263.115479 279.937042,258.848511 272.434448,251.066467 
	C273.906555,251.430374 275.558746,251.964355 277.048981,252.790482 
	C283.087311,256.137817 289.075836,259.574951 295.421204,263.038147 
z"/>
<path fill="#030101" opacity="1.000000" stroke="none" 
	d="
M270.985474,340.989166 
	C272.067627,339.330292 273.149750,337.671417 274.780212,335.172058 
	C275.371826,339.125977 275.771210,341.795135 276.170593,344.464325 
	C276.450165,344.440399 276.729736,344.416473 277.009308,344.392548 
	C277.787109,341.848999 278.564911,339.305450 279.730225,335.494659 
	C281.628082,340.558777 281.229553,344.602142 277.920563,346.147064 
	C274.492401,347.747620 272.394318,344.486938 271.281006,341.048584 
	C270.999817,341.000000 270.985474,340.989166 270.985474,340.989166 
z"/>
<path fill="#794A25" opacity="1.000000" stroke="none" 
	d="
M201.133148,340.096375 
	C200.411469,341.332825 199.930740,342.800354 199.176544,345.102692 
	C199.176544,341.805145 199.176544,339.386108 199.176544,335.755707 
	C201.338257,337.737366 202.794357,339.072205 204.370758,340.517334 
	C204.848679,339.445709 205.304993,338.422577 205.761307,337.399414 
	C206.077316,337.437286 206.393326,337.475128 206.709335,337.513000 
	C206.816269,339.696472 206.923187,341.879944 207.104797,345.588226 
	C204.556290,343.248749 202.965195,341.788116 201.133148,340.096375 
z"/>
<path fill="#F6E8CC" opacity="1.000000" stroke="none" 
	d="
M162.767242,156.980087 
	C165.387939,157.693436 167.762863,158.368607 171.842880,159.528519 
	C167.133911,160.756531 163.700195,161.651978 158.867508,162.912262 
	C160.485275,160.209488 161.209839,158.998978 161.998154,157.460327 
	C162.061890,157.132172 162.521484,156.941910 162.767242,156.980087 
z"/>
<path fill="#B2865C" opacity="1.000000" stroke="none" 
	d="
M340.022919,266.283142 
	C341.456482,265.979736 342.846710,265.876312 344.645264,265.884216 
	C343.520264,266.480194 341.987000,266.964874 340.120056,267.359711 
	C339.765991,266.986816 339.830383,266.724579 340.022919,266.283142 
z"/>
<path fill="#8D1850" opacity="1.000000" stroke="none" 
	d="
M300.845612,266.527863 
	C301.355652,266.378021 301.964172,266.447662 302.760437,266.776550 
	C302.280182,266.939667 301.612122,266.843506 300.845612,266.527863 
z"/>
<path fill="#8D1850" opacity="1.000000" stroke="none" 
	d="
M123.811661,201.323242 
	C123.954185,201.569809 123.983734,201.972305 123.929855,202.666473 
	C123.797180,202.465149 123.747932,201.972168 123.811661,201.323242 
z"/>
<path fill="#030101" opacity="1.000000" stroke="none" 
	d="
M271.005280,341.007080 
	C271.010742,341.014130 270.750793,341.411499 270.750793,341.411499 
	C270.750793,341.411499 270.760620,341.097198 270.873047,341.043182 
	C270.985474,340.989166 270.999817,341.000000 271.005280,341.007080 
z"/>
<path fill="#B2865C" opacity="1.000000" stroke="none" 
	d="
M297.690063,158.867920 
	C297.667603,159.182953 297.360107,159.417938 296.765564,159.553207 
	C296.787354,159.231613 297.096161,159.009735 297.690063,158.867920 
z"/>
<path fill="#B2865C" opacity="1.000000" stroke="none" 
	d="
M294.696045,159.986877 
	C294.683228,160.270859 294.399323,160.501205 293.842102,160.644073 
	C293.854156,160.348801 294.139557,160.141037 294.696045,159.986877 
z"/>
<path fill="#8D1850" opacity="1.000000" stroke="none" 
	d="
M127.106445,233.367798 
	C127.173805,233.412186 127.142960,233.371689 127.154205,233.348663 
	C127.165451,233.325623 127.039093,233.323410 127.106445,233.367798 
z"/>
<path fill="#030101" opacity="1.000000" stroke="none" 
	d="
M194.991760,188.953369 
	C209.163498,194.144577 219.617859,204.665192 231.119385,214.387177 
	C228.863144,217.601395 226.386993,220.428253 223.607697,223.327942 
	C214.926697,231.982986 205.958389,239.796326 194.625427,244.969574 
	C188.820862,245.183350 183.448792,245.521347 177.775284,245.755890 
	C176.647491,245.504486 175.821121,245.356567 174.773102,244.923325 
	C162.682190,241.405396 155.552338,233.405106 151.807632,221.674927 
	C151.613266,219.999283 151.404114,218.663086 151.319733,217.139664 
	C151.349365,216.538834 151.254211,216.125244 151.209900,215.341537 
	C151.493332,212.990326 151.725952,211.009201 152.049606,208.793793 
	C152.149033,208.392090 152.157425,208.224716 152.344223,207.772049 
	C153.004013,205.989090 153.485413,204.491425 154.184464,202.826660 
	C154.653976,202.178085 154.905838,201.696655 155.398438,201.099365 
	C155.751144,200.660187 155.863144,200.336884 156.199753,199.775848 
	C157.595825,198.221298 158.767273,196.904465 160.124741,195.586426 
	C160.570770,195.427963 160.635712,195.211868 160.767105,194.683212 
	C169.015106,188.306763 178.172012,186.394485 188.312790,187.057053 
	C189.271225,187.222000 189.926056,187.259308 190.826859,187.509109 
	C191.695557,187.876770 192.318283,188.031937 193.144180,188.387222 
	C193.895493,188.709366 194.443634,188.831360 194.991760,188.953369 
z"/>
<path fill="#B5088B" opacity="1.000000" stroke="none" 
	d="
M159.938736,195.587646 
	C158.767273,196.904465 157.595825,198.221298 155.967041,199.897812 
	C155.392380,200.576752 155.275040,200.895981 155.157700,201.215225 
	C154.905838,201.696655 154.653976,202.178085 153.831146,202.856842 
	C152.162659,204.603622 151.125534,206.200806 149.950333,207.688934 
	C148.812714,209.129532 147.533020,210.457947 146.315735,211.835632 
	C144.660248,210.357132 141.854446,209.081833 141.551102,207.364487 
	C140.326645,200.432327 139.643875,193.377441 139.226837,186.340286 
	C138.995148,182.430634 139.682190,178.466537 139.955154,174.526978 
	C141.295059,173.403854 142.634949,172.280716 144.642090,170.598282 
	C144.532593,172.693359 144.470810,173.875763 144.358765,176.019775 
	C145.936630,174.627884 146.863953,173.809860 148.231628,172.557755 
	C150.142014,171.194641 151.612030,170.265610 153.338440,169.174561 
	C152.493576,173.256821 151.452896,176.851547 151.056213,180.515976 
	C150.344711,187.088699 154.327118,189.912125 160.297119,187.153595 
	C169.727264,182.796249 178.925735,177.890213 188.535568,173.987976 
	C193.745117,171.872528 194.827118,169.387711 192.199097,164.776306 
	C196.601639,165.666794 201.004196,166.557281 205.906342,167.859955 
	C210.874680,170.962982 215.244400,173.845551 219.869339,176.233871 
	C221.356186,177.001663 223.950470,179.827271 225.253754,175.641510 
	C227.871017,178.512085 230.488297,181.382660 232.704697,184.612579 
	C228.997086,183.113266 225.690353,181.254623 223.724518,180.149658 
	C219.808838,181.281860 217.035995,182.689407 214.226013,182.767914 
	C208.660782,182.923401 203.008987,181.721695 197.522522,182.303223 
	C194.225006,182.652756 191.172043,185.309540 188.009186,186.929413 
	C178.172012,186.394485 169.015106,188.306763 160.630646,194.748627 
	C160.062012,195.199951 159.964035,195.373245 159.938736,195.587646 
M185.494919,185.564087 
	C185.494919,185.564087 185.463791,185.499664 185.494919,185.564087 
z"/>
<path fill="#8D1850" opacity="1.000000" stroke="none" 
	d="
M188.312790,187.057053 
	C191.172043,185.309540 194.225006,182.652756 197.522522,182.303223 
	C203.008987,181.721695 208.660782,182.923401 214.226013,182.767914 
	C217.035995,182.689407 219.808838,181.281860 223.724518,180.149658 
	C225.690353,181.254623 228.997086,183.113266 232.664764,184.969482 
	C233.025711,184.967072 233.003464,184.993835 233.023926,185.300354 
	C233.844101,185.722885 234.643799,185.838913 235.443481,185.954956 
	C238.529282,188.515823 241.836426,190.871323 244.540710,193.786148 
	C245.193085,194.489304 243.850189,197.043594 243.415176,198.785370 
	C227.502029,191.877914 212.117447,187.378464 195.265457,188.705963 
	C194.443634,188.831360 193.895493,188.709366 192.953888,188.097504 
	C191.900574,187.503983 191.240723,187.400299 190.580887,187.296616 
	C189.926056,187.259308 189.271225,187.222000 188.312790,187.057053 
z"/>
<path fill="#BD597A" opacity="1.000000" stroke="none" 
	d="
M225.052429,175.378571 
	C223.950470,179.827271 221.356186,177.001663 219.869339,176.233871 
	C215.244400,173.845551 210.874680,170.962982 206.288055,167.942459 
	C207.026535,166.904343 207.882950,166.195908 208.839508,165.198181 
	C214.243454,168.311142 219.547272,171.713379 225.052429,175.378571 
z"/>
<path fill="#DCBD90" opacity="1.000000" stroke="none" 
	d="
M223.910858,223.255096 
	C226.386993,220.428253 228.863144,217.601395 231.490845,214.447357 
	C231.947952,214.203674 232.229370,214.153061 232.750793,214.355682 
	C233.045258,215.037598 233.075592,215.332153 233.031952,215.899078 
	C231.638245,217.777054 230.318542,219.382645 228.775803,221.210785 
	C227.582001,222.231461 226.611221,223.029572 225.458466,223.941132 
	C225.069229,224.267883 224.944794,224.521820 224.692154,224.926331 
	C224.481155,225.036316 224.032944,225.196213 224.003830,224.872147 
	C223.953430,224.117081 223.932144,223.686096 223.910858,223.255096 
z"/>
<path fill="#EED9B7" opacity="1.000000" stroke="none" 
	d="
M233.105942,215.626724 
	C233.075592,215.332153 233.045258,215.037598 232.964691,214.301819 
	C233.264526,213.464783 233.614563,213.068970 234.199615,212.542633 
	C234.592224,212.573746 234.749817,212.735397 234.965363,213.408173 
	C234.384171,214.488449 233.745056,215.057587 233.105942,215.626724 
z"/>
<path fill="#B5088B" opacity="1.000000" stroke="none" 
	d="
M235.191040,185.712509 
	C234.643799,185.838913 233.844101,185.722885 233.034821,185.290344 
	C233.663010,185.139236 234.300812,185.304657 235.191040,185.712509 
z"/>
<path fill="#8D1850" opacity="1.000000" stroke="none" 
	d="
M178.076721,245.859344 
	C183.448792,245.521347 188.820862,245.183350 194.506500,245.231613 
	C194.574081,246.126892 194.328064,246.635910 194.082062,247.144913 
	C193.823654,247.324570 193.574829,247.516617 192.890869,247.862152 
	C191.971497,248.296844 191.496826,248.590424 191.022141,248.884003 
	C190.462402,249.101288 189.902649,249.318588 188.862213,249.737000 
	C187.913223,250.180908 187.444901,250.423721 186.976578,250.666534 
	C178.949326,254.100418 170.585419,255.549118 161.406158,254.859131 
	C153.105042,253.764282 147.081039,249.702972 142.336548,243.192627 
	C142.660553,242.572205 142.846100,242.329102 142.964218,242.034500 
	C143.139450,242.037766 143.314667,242.041031 143.834808,242.393311 
	C145.434387,243.167999 146.689026,243.593658 147.943680,244.019318 
	C148.689743,244.070724 149.435806,244.122116 150.658997,244.546066 
	C158.701035,249.859055 167.161072,249.042175 175.516098,248.519012 
	C176.421600,248.462311 177.225616,246.784943 178.076721,245.859344 
z"/>
<path fill="#B5088B" opacity="1.000000" stroke="none" 
	d="
M142.921875,241.686707 
	C142.846100,242.329102 142.660553,242.572205 142.207947,242.882202 
	C141.229050,242.708725 140.449783,242.416840 139.399536,241.962402 
	C139.118515,241.103638 139.108475,240.407425 139.116394,239.362610 
	C140.382736,239.789001 141.631134,240.563950 142.921875,241.686707 
z"/>
<path fill="#670C4C" opacity="1.000000" stroke="none" 
	d="
M328.623230,170.982681 
	C332.973938,170.962173 337.025909,171.060837 341.542847,171.156372 
	C347.905121,173.536316 353.802338,175.919388 359.833679,178.892303 
	C359.069214,179.595596 358.098145,179.986237 357.285065,179.773346 
	C354.168304,178.957214 351.102234,177.947342 348.005066,177.009949 
	C347.992828,177.010147 347.986908,176.986404 347.912872,176.633514 
	C345.226990,175.853027 342.615173,175.425415 339.631348,175.007675 
	C338.516754,174.977905 337.774139,174.938248 336.924316,174.545135 
	C334.356842,172.461960 332.009705,172.005386 329.550323,174.844360 
	C328.073669,174.917786 326.998169,174.948364 325.515656,174.973175 
	C322.337524,175.462891 319.566467,175.958374 316.795410,176.453857 
	C316.912811,177.068115 317.030243,177.682358 317.147675,178.296616 
	C319.753754,177.876617 322.359863,177.456619 325.412994,177.018646 
	C340.452118,177.355499 353.157288,182.171509 362.946838,192.901276 
	C360.346802,191.991852 357.863190,191.444214 356.067261,190.025894 
	C352.143677,186.927231 347.161926,186.303772 342.618347,188.927643 
	C337.134735,186.166595 332.210693,181.885574 326.793549,181.127243 
	C319.185364,180.062210 311.210754,181.614395 303.340454,181.852997 
	C303.288055,181.658783 303.146027,181.282333 303.461945,181.139404 
	C306.419037,179.201019 309.060211,177.405579 311.701416,175.610138 
	C313.220917,175.065765 314.740417,174.521393 316.868591,173.884949 
	C318.207153,173.436249 318.937012,173.079605 319.666901,172.722961 
	C321.153320,172.383804 322.639771,172.044647 324.756104,171.688553 
	C325.938599,171.469131 326.491211,171.266663 327.043823,171.064194 
	C327.470703,171.076752 327.897614,171.089310 328.623230,170.982681 
z"/>
<path fill="#BD597A" opacity="1.000000" stroke="none" 
	d="
M337.031525,174.898590 
	C337.774139,174.938248 338.516754,174.977905 339.886719,175.279526 
	C343.005005,176.023148 345.495941,176.504776 347.986908,176.986404 
	C347.986908,176.986404 347.992828,177.010147 348.059418,177.359909 
	C349.178864,178.409454 350.147552,179.323364 351.297760,179.775604 
	C361.742493,183.882492 368.538300,191.823212 374.014496,201.181137 
	C374.832703,202.728027 375.650909,204.274933 376.810974,205.851776 
	C377.192108,206.673126 377.231415,207.464523 376.920868,208.644562 
	C376.060272,209.028107 375.549561,209.022980 374.726776,208.854431 
	C370.734863,203.416733 367.054993,198.142456 363.375122,192.868179 
	C353.157288,182.171509 340.452118,177.355499 325.534637,176.760300 
	C325.447052,176.006256 325.684875,175.492599 325.922699,174.978943 
	C326.998169,174.948364 328.073669,174.917786 329.988281,174.923248 
	C332.895447,174.939087 334.963501,174.918839 337.031525,174.898590 
z"/>
<path fill="#8D1850" opacity="1.000000" stroke="none" 
	d="
M374.243744,200.908432 
	C368.538300,191.823212 361.742493,183.882492 351.297760,179.775604 
	C350.147552,179.323364 349.178864,178.409454 348.071655,177.359711 
	C351.102234,177.947342 354.168304,178.957214 357.285065,179.773346 
	C358.098145,179.986237 359.069214,179.595596 360.052368,179.154938 
	C368.897156,183.479736 373.729340,190.713882 374.243744,200.908432 
z"/>
<path fill="#DCBD90" opacity="1.000000" stroke="none" 
	d="
M311.263367,175.453979 
	C309.060211,177.405579 306.419037,179.201019 303.198364,180.841858 
	C301.023651,180.637711 299.329376,180.209839 297.848755,180.597672 
	C284.307892,184.144470 271.578552,189.512344 259.886078,197.345871 
	C255.510818,200.277145 250.663727,202.504181 246.031738,205.052277 
	C247.336578,203.350830 248.641418,201.649384 250.013367,199.639496 
	C250.550552,198.977478 251.020615,198.623871 252.064697,198.106110 
	C253.152924,197.355759 253.667114,196.769562 254.181305,196.183380 
	C256.005676,195.314972 257.830017,194.446564 260.156769,193.261017 
	C261.809937,192.008011 262.960693,191.072144 264.111450,190.136292 
	C274.647766,185.975433 285.075043,181.499619 295.770264,177.797913 
	C300.509338,176.157654 305.790375,176.083084 311.263367,175.453979 
z"/>
<path fill="#EED9B7" opacity="1.000000" stroke="none" 
	d="
M263.742126,190.103333 
	C262.960693,191.072144 261.809937,192.008011 260.330688,192.969940 
	C261.125763,192.020798 262.249298,191.045578 263.742126,190.103333 
z"/>
<path fill="#DCBD90" opacity="1.000000" stroke="none" 
	d="
M319.353577,172.551300 
	C318.937012,173.079605 318.207153,173.436249 317.170959,173.706940 
	C317.589844,173.207214 318.315063,172.793427 319.353577,172.551300 
z"/>
<path fill="#DCBD90" opacity="1.000000" stroke="none" 
	d="
M326.909790,170.846375 
	C326.491211,171.266663 325.938599,171.469131 325.107208,171.532913 
	C325.477539,171.139008 326.126617,170.883789 326.909790,170.846375 
z"/>
<path fill="#EED9B7" opacity="1.000000" stroke="none" 
	d="
M253.848724,196.173340 
	C253.667114,196.769562 253.152924,197.355759 252.327820,197.980255 
	C252.516663,197.400146 253.016403,196.781738 253.848724,196.173340 
z"/>
<path fill="#B2865C" opacity="1.000000" stroke="none" 
	d="
M245.831207,205.318756 
	C250.663727,202.504181 255.510818,200.277145 259.886078,197.345871 
	C271.578552,189.512344 284.307892,184.144470 297.848755,180.597672 
	C299.329376,180.209839 301.023651,180.637711 302.882446,180.984787 
	C303.146027,181.282333 303.288055,181.658783 303.028351,182.036102 
	C289.364166,190.599579 278.320374,201.465942 267.942139,213.087967 
	C267.942139,213.087967 267.574738,213.112289 267.227966,212.874222 
	C264.905273,214.242996 262.929321,215.849823 260.651123,217.524231 
	C260.159302,217.673569 259.969696,217.755341 259.422058,217.860504 
	C254.517670,220.604813 249.876022,223.179703 245.442215,226.073059 
	C229.875473,236.231384 212.989212,243.196579 194.899307,247.326767 
	C194.899307,247.326767 194.477280,247.295380 194.279663,247.220154 
	C194.328064,246.635910 194.574081,246.126892 194.939011,245.355835 
	C205.958389,239.796326 214.926697,231.982986 223.607697,223.327942 
	C223.932144,223.686096 223.953430,224.117081 223.958649,225.201996 
	C221.270889,228.308319 218.636475,230.803009 215.916931,233.201172 
	C213.211746,235.586685 210.421051,237.875244 207.667847,240.206314 
	C239.865845,229.551514 266.176331,210.105728 291.984558,187.359787 
	C289.761230,187.131149 288.997314,186.801895 288.510986,187.039856 
	C279.903870,191.251328 270.970581,194.946121 262.839569,199.943283 
	C252.291595,206.425858 242.409500,213.988464 232.162018,220.970581 
	C231.439178,221.463074 230.068344,221.004547 228.998825,220.988235 
	C230.318542,219.382645 231.638245,217.777054 233.031952,215.899078 
	C233.745056,215.057587 234.384171,214.488449 235.196259,213.655899 
	C238.789719,210.790070 242.210205,208.187637 245.831207,205.318756 
M292.605011,186.491486 
	C292.605011,186.491486 292.415344,186.380936 292.415344,186.380936 
	C292.415344,186.380936 292.440094,186.589966 292.605011,186.491486 
z"/>
<path fill="#DCBD90" opacity="1.000000" stroke="none" 
	d="
M195.031815,247.648132 
	C212.989212,243.196579 229.875473,236.231384 245.442215,226.073059 
	C249.876022,223.179703 254.517670,220.604813 259.576935,218.105804 
	C260.392090,218.550278 260.694366,218.772827 261.116882,219.130386 
	C261.237183,219.265381 261.487457,219.526367 261.487457,219.526367 
	C260.998596,220.098389 260.509735,220.670425 259.591583,221.103546 
	C258.859894,221.121353 258.557495,221.278091 258.255096,221.434814 
	C258.255096,221.434814 258.280182,221.205261 258.007477,221.215973 
	C256.457611,222.405441 255.180435,223.584213 253.905060,225.219025 
	C253.952469,225.975677 253.998093,226.276276 254.043701,226.576859 
	C254.193619,226.809616 254.146561,226.991882 253.327667,227.004730 
	C252.189377,226.812225 251.625977,226.738663 250.821579,226.496277 
	C249.356537,227.183594 248.132477,228.039719 246.908432,228.895859 
	C246.611694,229.030838 246.359314,229.223846 245.700394,229.743683 
	C244.424683,230.928497 243.599899,231.844513 242.775101,232.760529 
	C242.775101,232.760529 242.356857,232.807983 241.779572,232.874481 
	C233.257126,236.379547 225.344635,239.896637 217.353134,243.223953 
	C213.297943,244.912354 209.100281,246.258575 204.967010,247.759491 
	C204.522629,247.809265 204.078247,247.859070 203.298996,247.936798 
	C200.364197,247.966324 197.764252,247.967926 195.031815,247.648132 
z"/>
<path fill="#DCBD90" opacity="1.000000" stroke="none" 
	d="
M191.178207,249.101868 
	C191.496826,248.590424 191.971497,248.296844 192.737671,248.041321 
	C192.464188,248.492828 191.899231,248.906281 191.178207,249.101868 
z"/>
<path fill="#DCBD90" opacity="1.000000" stroke="none" 
	d="
M187.112213,250.912064 
	C187.444901,250.423721 187.913223,250.180908 188.655457,249.959915 
	C188.368851,250.373688 187.808334,250.765640 187.112213,250.912064 
z"/>
<path fill="#F6E8CC" opacity="1.000000" stroke="none" 
	d="
M188.760849,255.588165 
	C188.817184,255.399460 188.949982,255.335526 189.082794,255.271576 
	C189.000961,255.418686 188.919144,255.565811 188.760849,255.588165 
z"/>
<path fill="#EED9B7" opacity="1.000000" stroke="none" 
	d="
M205.194153,248.058167 
	C209.100281,246.258575 213.297943,244.912354 217.353134,243.223953 
	C225.344635,239.896637 233.257126,236.379547 241.575500,232.925934 
	C237.876984,235.571121 234.057938,238.794418 229.675064,240.761139 
	C222.896347,243.802933 215.748611,246.032928 208.712845,248.479095 
	C207.746628,248.815018 206.524780,248.415741 205.194153,248.058167 
z"/>
<path fill="#EED9B7" opacity="1.000000" stroke="none" 
	d="
M247.347961,228.924774 
	C248.132477,228.039719 249.356537,227.183594 250.803696,226.941101 
	C251.106232,228.134415 251.185684,228.714111 251.265137,229.293808 
	C251.265121,229.293808 251.237305,229.304092 251.250244,229.315536 
	C250.104614,229.202545 248.946045,229.078125 247.347961,228.924774 
z"/>
<path fill="#EED9B7" opacity="1.000000" stroke="none" 
	d="
M243.133270,232.788773 
	C243.599899,231.844513 244.424683,230.928497 245.569763,229.944870 
	C245.090515,230.857193 244.290970,231.837097 243.133270,232.788773 
z"/>
<path fill="#030101" opacity="1.000000" stroke="none" 
	d="
M268.143616,213.348679 
	C278.320374,201.465942 289.364166,190.599579 303.080750,182.230316 
	C311.210754,181.614395 319.185364,180.062210 326.793549,181.127243 
	C332.210693,181.885574 337.134735,186.166595 342.722656,189.234497 
	C344.070374,190.765213 344.974274,191.936935 345.897766,193.328674 
	C346.035187,193.834518 346.231934,194.047501 346.591614,194.397629 
	C346.675629,194.607651 346.823975,195.035065 346.824768,195.422180 
	C351.973724,206.045746 350.822906,216.157532 346.049438,226.486298 
	C339.929169,235.499191 331.085663,238.882782 321.119232,240.195557 
	C315.688721,239.763550 310.258209,239.331528 304.132599,238.810043 
	C302.934082,238.534103 302.430664,238.347641 301.927246,238.161179 
	C301.215912,237.393219 300.638214,236.391785 299.771332,235.895554 
	C294.505188,232.881088 289.173126,229.981750 283.539398,226.954712 
	C278.258850,222.446762 273.301971,218.028076 268.143616,213.348679 
z"/>
<path fill="#DCBD90" opacity="1.000000" stroke="none" 
	d="
M260.953400,217.456665 
	C262.929321,215.849823 264.905273,214.242996 267.045959,212.902069 
	C265.480072,215.161362 263.749420,217.154724 261.753113,219.337219 
	C261.487457,219.526367 261.237183,219.265381 261.125061,218.745178 
	C260.993103,217.968887 260.973267,217.712784 260.953400,217.456665 
z"/>
<path fill="#EED9B7" opacity="1.000000" stroke="none" 
	d="
M253.903275,224.762985 
	C255.180435,223.584213 256.457611,222.405441 258.115173,221.257629 
	C257.562439,222.797150 256.629333,224.305679 255.213959,225.665512 
	C254.455551,225.265533 254.179413,225.014267 253.903275,224.762985 
z"/>
<path fill="#F6E8CC" opacity="1.000000" stroke="none" 
	d="
M251.581665,229.188751 
	C251.185684,228.714111 251.106232,228.134415 251.044678,227.109909 
	C251.625977,226.738663 252.189377,226.812225 253.171097,226.968292 
	C253.025650,227.728424 252.461914,228.406052 251.581665,229.188751 
z"/>
<path fill="#F6E8CC" opacity="1.000000" stroke="none" 
	d="
M253.905060,225.219025 
	C254.179413,225.014267 254.455551,225.265533 254.869843,225.759247 
	C254.843140,226.090408 254.678284,226.179123 254.278564,226.422348 
	C253.998093,226.276276 253.952469,225.975677 253.905060,225.219025 
z"/>
<path fill="#EED9B7" opacity="1.000000" stroke="none" 
	d="
M258.563904,221.625793 
	C258.557495,221.278091 258.859894,221.121353 259.319336,221.188965 
	C259.275146,221.547806 259.073914,221.682297 258.563904,221.625793 
z"/>
<path fill="#E805BD" opacity="1.000000" stroke="none" 
	d="
M191.936432,164.543976 
	C194.827118,169.387711 193.745117,171.872528 188.535568,173.987976 
	C178.925735,177.890213 169.727264,182.796249 160.297119,187.153595 
	C154.327118,189.912125 150.344711,187.088699 151.056213,180.515976 
	C151.452896,176.851547 152.493576,173.256821 153.338440,169.174561 
	C151.612030,170.265610 150.142014,171.194641 148.347260,172.285294 
	C148.997391,170.499481 149.972229,168.552063 151.106308,166.395233 
	C156.389008,165.384521 161.490860,164.379913 166.641312,163.832748 
	C173.261536,163.129456 179.920746,162.793335 186.720627,162.787323 
	C186.951797,163.885498 187.025528,164.495361 187.099243,165.105240 
	C188.017288,164.552902 188.935349,164.000549 189.853394,163.448212 
	C190.460175,163.736038 191.066971,164.023849 191.936432,164.543976 
z"/>
<path fill="#670C4C" opacity="1.000000" stroke="none" 
	d="
M151.792831,222.014374 
	C155.552338,233.405106 162.682190,241.405396 174.531021,245.186829 
	C172.332626,245.976059 170.041306,246.768890 167.998611,246.349838 
	C162.592682,245.240829 157.294388,243.607269 151.953247,242.182465 
	C137.201355,233.484055 127.899422,221.111038 127.228241,203.586029 
	C126.899033,194.990112 130.060120,187.143311 135.715881,180.476120 
	C136.049088,187.708527 135.943146,194.737106 136.016327,201.763824 
	C136.137131,213.358795 141.841660,222.459946 149.277740,230.719727 
	C150.038620,231.564880 151.174103,232.072769 152.393555,232.915268 
	C152.167557,228.814331 151.980194,225.414352 151.792831,222.014374 
z"/>
<path fill="#8D1850" opacity="1.000000" stroke="none" 
	d="
M151.807632,221.674927 
	C151.980194,225.414352 152.167557,228.814331 152.393555,232.915268 
	C151.174103,232.072769 150.038620,231.564880 149.277740,230.719727 
	C141.841660,222.459946 136.137131,213.358795 136.016327,201.763824 
	C135.943146,194.737106 136.049088,187.708527 136.030914,180.323303 
	C137.125916,178.310455 138.264542,176.655090 139.679169,174.763351 
	C139.682190,178.466537 138.995148,182.430634 139.226837,186.340286 
	C139.643875,193.377441 140.326645,200.432327 141.551102,207.364487 
	C141.854446,209.081833 144.660248,210.357132 146.315735,211.835632 
	C147.533020,210.457947 148.812714,209.129532 149.950333,207.688934 
	C151.125534,206.200806 152.162659,204.603622 153.613495,203.023956 
	C153.485413,204.491425 153.004013,205.989090 152.171051,207.829010 
	C151.744308,208.264252 151.586639,208.391434 151.608505,208.444107 
	C151.694534,208.651489 151.837021,208.835449 151.958557,209.028091 
	C151.725952,211.009201 151.493332,212.990326 151.180084,215.747162 
	C151.131271,216.790878 151.163101,217.058884 151.194946,217.326889 
	C151.404114,218.663086 151.613266,219.999283 151.807632,221.674927 
M147.536758,214.957291 
	C147.380203,215.625259 147.223648,216.293243 146.763779,218.255447 
	C147.637451,216.795074 147.870392,216.548874 147.930695,216.265884 
	C147.995041,215.963974 147.896271,215.627335 147.536758,214.957291 
z"/>
<path fill="#B5088B" opacity="1.000000" stroke="none" 
	d="
M151.829010,242.442612 
	C157.294388,243.607269 162.592682,245.240829 167.998611,246.349838 
	C170.041306,246.768890 172.332626,245.976059 174.752686,245.472153 
	C175.821121,245.356567 176.647491,245.504486 177.775284,245.755890 
	C177.225616,246.784943 176.421600,248.462311 175.516098,248.519012 
	C167.161072,249.042175 158.701035,249.859055 151.029266,244.598175 
	C151.183182,243.752747 151.443970,243.227753 151.829010,242.442612 
z"/>
<path fill="#B5088B" opacity="1.000000" stroke="none" 
	d="
M147.875870,243.671402 
	C146.689026,243.593658 145.434387,243.167999 144.097351,242.406158 
	C145.279327,242.487808 146.543686,242.905655 147.875870,243.671402 
z"/>
<path fill="#B5088B" opacity="1.000000" stroke="none" 
	d="
M301.539307,238.163452 
	C302.430664,238.347641 302.934082,238.534103 303.679565,238.845093 
	C305.137665,239.988632 306.353668,241.007629 307.821289,242.237488 
	C307.213745,243.118362 306.792786,244.423965 305.927795,244.871780 
	C299.560822,248.167877 293.408997,252.693985 285.828888,251.847641 
	C281.415680,251.354919 277.175476,249.312637 272.494507,247.934265 
	C273.179138,244.482254 274.321899,241.746155 278.998688,241.677444 
	C281.020721,241.647720 283.158325,238.807465 284.963104,236.968796 
	C288.344208,233.524261 291.755432,233.665497 295.636169,236.060577 
	C297.281097,237.075790 299.301575,237.482468 301.539307,238.163452 
z"/>
<path fill="#E5643C" opacity="1.000000" stroke="none" 
	d="
M320.992859,240.529922 
	C331.085663,238.882782 339.929169,235.499191 346.371399,226.366852 
	C352.704193,218.244507 352.618408,209.600220 351.213440,200.764648 
	C353.276154,201.474258 355.398560,201.660095 356.545502,202.814804 
	C363.130768,209.444687 369.484711,216.304337 375.917145,223.086044 
	C374.223236,235.107864 369.491974,245.004837 358.462646,251.597046 
	C354.485291,253.974289 351.011322,255.988968 346.272034,256.192108 
	C344.318054,256.275848 342.623657,259.131714 340.524567,259.744019 
	C334.844696,261.400848 329.069641,263.009094 323.220795,263.724823 
	C318.144348,264.346039 312.915344,263.720093 307.274475,263.486877 
	C303.842682,262.622742 300.890228,261.917023 297.552979,261.195496 
	C295.675140,260.198517 294.182068,259.217407 292.486450,258.103210 
	C297.891876,255.584122 303.235657,253.164749 308.504578,250.591995 
	C309.952820,249.884827 311.222076,248.775055 312.495026,247.752365 
	C315.311951,245.489243 318.079071,243.164124 320.992859,240.529922 
z"/>
<path fill="#8D1850" opacity="1.000000" stroke="none" 
	d="
M375.943604,222.653503 
	C369.484711,216.304337 363.130768,209.444687 356.545502,202.814804 
	C355.398560,201.660095 353.276154,201.474258 351.188263,200.440735 
	C349.456146,198.372040 348.140076,196.703552 346.823975,195.035065 
	C346.823975,195.035065 346.675629,194.607651 346.792480,194.278046 
	C346.565643,193.668503 346.221924,193.388580 345.878204,193.108658 
	C344.974274,191.936935 344.070374,190.765213 343.062134,189.286636 
	C347.161926,186.303772 352.143677,186.927231 356.067261,190.025894 
	C357.863190,191.444214 360.346802,191.991852 362.946838,192.901276 
	C367.054993,198.142456 370.734863,203.416733 374.720703,209.280197 
	C375.484100,212.286499 375.941559,214.703629 376.398987,217.120743 
	C376.256012,218.820816 376.113037,220.520905 375.943604,222.653503 
z"/>
<path fill="#B2865C" opacity="1.000000" stroke="none" 
	d="
M376.738861,216.991104 
	C375.941559,214.703629 375.484100,212.286499 375.032715,209.443634 
	C375.549561,209.022980 376.060272,209.028107 376.958649,209.037445 
	C377.257080,211.648254 377.167908,214.254868 376.738861,216.991104 
z"/>
<path fill="#B5088B" opacity="1.000000" stroke="none" 
	d="
M189.620972,163.309143 
	C188.935349,164.000549 188.017288,164.552902 187.099243,165.105240 
	C187.025528,164.495361 186.951797,163.885498 187.065643,163.048523 
	C187.964996,162.937622 188.676773,163.053848 189.620972,163.309143 
z"/>
<path fill="#010000" opacity="1.000000" stroke="none" 
	d="
M207.597061,318.285034 
	C207.579391,318.579834 207.363861,318.641022 207.148331,318.702209 
	C207.231949,318.485291 207.315582,318.268341 207.597061,318.285034 
z"/>
<path fill="#030101" opacity="1.000000" stroke="none" 
	d="
M332.247467,319.010590 
	C330.234955,325.287476 325.309723,321.858856 321.341431,323.255371 
	C321.341431,320.248901 321.341431,317.741913 321.341431,314.850464 
	C325.358765,315.453064 330.234222,312.442169 332.247467,319.010590 
z"/>
<path fill="#030101" opacity="1.000000" stroke="none" 
	d="
M320.925049,307.966309 
	C321.807465,302.397736 325.692719,305.781006 328.082611,305.277588 
	C328.937836,305.097412 330.340576,307.516327 331.493439,308.748932 
	C329.796417,309.994141 328.232910,311.536774 326.355194,312.379303 
	C325.116180,312.935272 323.425415,312.484528 321.346191,312.484528 
	C321.210724,311.192474 321.065216,309.804321 320.925049,307.966309 
z"/>
<path fill="#670C4C" opacity="1.000000" stroke="none" 
	d="
M190.826859,187.509109 
	C191.240723,187.400299 191.900574,187.503983 192.750702,187.897369 
	C192.318283,188.031937 191.695557,187.876770 190.826859,187.509109 
z"/>
<path fill="#8D1850" opacity="1.000000" stroke="none" 
	d="
M155.398438,201.099365 
	C155.275040,200.895981 155.392380,200.576752 155.742432,200.135544 
	C155.863144,200.336884 155.751144,200.660187 155.398438,201.099365 
z"/>
<path fill="#670C4C" opacity="1.000000" stroke="none" 
	d="
M151.319733,217.139664 
	C151.163101,217.058884 151.131271,216.790878 151.129242,216.117249 
	C151.254211,216.125244 151.349365,216.538834 151.319733,217.139664 
z"/>
<path fill="#670C4C" opacity="1.000000" stroke="none" 
	d="
M152.049591,208.793793 
	C151.837021,208.835449 151.694534,208.651489 151.608505,208.444107 
	C151.586639,208.391434 151.744308,208.264252 151.992645,208.114319 
	C152.157425,208.224716 152.149033,208.392090 152.049591,208.793793 
z"/>
<path fill="#8D1850" opacity="1.000000" stroke="none" 
	d="
M160.124741,195.586426 
	C159.964035,195.373245 160.062012,195.199951 160.369110,195.002350 
	C160.635712,195.211868 160.570770,195.427963 160.124741,195.586426 
z"/>
<path fill="#8D1850" opacity="1.000000" stroke="none" 
	d="
M185.479355,185.531876 
	C185.463791,185.499664 185.494919,185.564087 185.479355,185.531876 
z"/>
<path fill="#794A25" opacity="1.000000" stroke="none" 
	d="
M228.775803,221.210785 
	C230.068344,221.004547 231.439178,221.463074 232.162018,220.970581 
	C242.409500,213.988464 252.291595,206.425858 262.839569,199.943283 
	C270.970581,194.946121 279.903870,191.251328 288.510986,187.039856 
	C288.997314,186.801895 289.761230,187.131149 291.984558,187.359787 
	C266.176331,210.105728 239.865845,229.551514 207.667847,240.206314 
	C210.421051,237.875244 213.211746,235.586685 215.916931,233.201172 
	C218.636475,230.803009 221.270889,228.308319 223.987762,225.526062 
	C224.032944,225.196213 224.481155,225.036316 224.908722,224.845398 
	C225.613174,224.443542 225.714569,224.167938 225.640457,223.827698 
	C226.611221,223.029572 227.582001,222.231461 228.775803,221.210785 
z"/>
<path fill="#B2865C" opacity="1.000000" stroke="none" 
	d="
M225.458466,223.941132 
	C225.714569,224.167938 225.613174,224.443542 225.119720,224.735413 
	C224.944794,224.521820 225.069229,224.267883 225.458466,223.941132 
z"/>
<path fill="#8D1850" opacity="1.000000" stroke="none" 
	d="
M325.515656,174.973175 
	C325.684875,175.492599 325.447052,176.006256 325.087585,176.778259 
	C322.359863,177.456619 319.753754,177.876617 317.147675,178.296616 
	C317.030243,177.682358 316.912811,177.068115 316.795410,176.453857 
	C319.566467,175.958374 322.337524,175.462891 325.515656,174.973175 
z"/>
<path fill="#8D1850" opacity="1.000000" stroke="none" 
	d="
M347.912872,176.633514 
	C345.495941,176.504776 343.005005,176.023148 340.258667,175.269653 
	C342.615173,175.425415 345.226990,175.853027 347.912872,176.633514 
z"/>
<path fill="#8D1850" opacity="1.000000" stroke="none" 
	d="
M336.924316,174.545120 
	C334.963501,174.918839 332.895447,174.939087 330.389465,174.880432 
	C332.009705,172.005386 334.356842,172.461960 336.924316,174.545120 
z"/>
<path fill="#EED9B7" opacity="1.000000" stroke="none" 
	d="
M260.651123,217.524231 
	C260.973267,217.712784 260.993103,217.968887 261.004791,218.610199 
	C260.694366,218.772827 260.392090,218.550278 259.934937,218.082428 
	C259.969696,217.755341 260.159302,217.673569 260.651123,217.524231 
z"/>
<path fill="#794A25" opacity="1.000000" stroke="none" 
	d="
M292.522552,186.540726 
	C292.440094,186.589966 292.415344,186.380936 292.415344,186.380936 
	C292.415344,186.380936 292.605011,186.491486 292.522552,186.540726 
z"/>
<path fill="#794A25" opacity="1.000000" stroke="none" 
	d="
M346.824768,195.422180 
	C348.140076,196.703552 349.456146,198.372040 350.797424,200.364456 
	C352.618408,209.600220 352.704193,218.244507 346.546082,226.081650 
	C350.822906,216.157532 351.973724,206.045746 346.824768,195.422180 
z"/>
<path fill="#794A25" opacity="1.000000" stroke="none" 
	d="
M345.897766,193.328674 
	C346.221924,193.388580 346.565643,193.668503 346.708496,194.068024 
	C346.231934,194.047501 346.035187,193.834518 345.897766,193.328674 
z"/>
<path fill="#B5088B" opacity="1.000000" stroke="none" 
	d="
M147.702728,215.131561 
	C147.896271,215.627335 147.995041,215.963974 147.930695,216.265884 
	C147.870392,216.548874 147.637451,216.795074 146.763779,218.255447 
	C147.223648,216.293243 147.380203,215.625259 147.702728,215.131561 
z"/>
</svg>